<?xml version="1.0" encoding="UTF-8" standalone="no"?>
<!-- Created with Inkscape (http://www.inkscape.org/) -->

<svg
   width="1100mm"
   height="640mm"
   viewBox="0 0 1100 640"
   version="1.1"
   id="svg5"
   xml:space="preserve"
   sodipodi:docname="codedock_splash.svg"
   inkscape:export-filename="cd_icon.svg"
   inkscape:export-xdpi="18.472727"
   inkscape:export-ydpi="18.472727"
   inkscape:version="1.2.2 (b0a8486541, 2022-12-01)"
   xmlns:inkscape="http://www.inkscape.org/namespaces/inkscape"
   xmlns:sodipodi="http://sodipodi.sourceforge.net/DTD/sodipodi-0.dtd"
   xmlns="http://www.w3.org/2000/svg"
   xmlns:svg="http://www.w3.org/2000/svg"><sodipodi:namedview
     id="namedview7"
     pagecolor="#212121"
     bordercolor="#eeeeee"
     borderopacity="0"
     inkscape:showpageshadow="0"
     inkscape:pageopacity="0.8745098"
     inkscape:pagecheckerboard="0"
     inkscape:deskcolor="#4d4d4d"
     inkscape:document-units="mm"
     showgrid="true"
     inkscape:zoom="0.23853805"
     inkscape:cx="1050.1469"
     inkscape:cy="1282.8142"
     inkscape:window-width="1920"
     inkscape:window-height="1008"
     inkscape:window-x="0"
     inkscape:window-y="0"
     inkscape:window-maximized="1"
     inkscape:current-layer="layer1"><inkscape:grid
       type="xygrid"
       id="grid15747"
       originx="1100"
       originy="319.99999"
       visible="false"
       enabled="true"
       snapvisiblegridlinesonly="true"
       dotted="false"
       empspacing="25"
       units="px" /></sodipodi:namedview><defs
     id="defs2"><clipPath
       clipPathUnits="userSpaceOnUse"
       id="clipPath5406"><path
         id="path5408"
         style="fill:#ff0000;fill-opacity:1;fill-rule:nonzero;stroke:none;stroke-width:0.264583"
         d="M 345.64608,61.820515 V 318.31494 h 97.04319 c 0.33131,-0.64987 0.73102,-1.30775 1.20923,-1.97302 0.11215,-0.15603 0.22423,-0.31216 0.33639,-0.46818 -2.25293,-1.83687 -4.31234,-4.26839 -6.18617,-7.22125 -1.66243,-2.61977 -1.2173,-6.17527 -0.91366,-9.26301 0.16893,-1.7145 1.52254,-3.09136 2.28359,-4.63693 0.89379,-0.89667 2.19247,-1.95823 3.21376,-3.16156 -0.1828,-2.37413 0.45593,-4.90833 1.07437,-7.28895 -0.2866,-1.66047 -0.61087,-3.27567 -0.71057,-3.85612 0.0748,-0.17735 0.13767,-0.33779 0.20982,-0.51159 -0.49649,-0.16569 -0.97076,-0.33036 -1.48053,-0.4966 -0.78523,-0.25612 1.39787,-0.8813 2.07944,-1.34774 0.0674,-0.0461 0.13811,-0.0894 0.20722,-0.13382 0.15105,-0.37867 0.30202,-0.75639 0.44495,-1.11466 -0.25746,-0.11375 -0.51596,-0.22572 -0.77308,-0.34005 -0.76306,-0.33927 0.14996,-0.79232 1.37202,-1.1312 0.43016,-1.03642 0.85275,-1.97934 1.30638,-2.80963 -0.1347,-0.57457 -0.51311,-1.72125 -0.81341,-2.94556 -0.0206,-0.0103 -0.0431,-0.022 -0.0635,-0.032 -0.47014,1.2659 -0.91784,2.63954 -1.3906,4.11705 -0.60637,1.89505 0.0967,0.45633 -0.48268,1.55755 -1.43687,-6.2992 -1.74588,-7.46805 1.87328,-5.6746 0.0114,-0.0309 0.023,-0.0607 0.0346,-0.0915 -0.51424,-2.14636 -0.7361,-4.43442 1.13067,-4.08091 0.23167,0.0439 0.46212,0.0937 0.6935,0.13901 2.12902,-3.54773 5.3022,-5.54992 11.7724,-5.59241 1.10625,-0.007 2.32116,0.0495 3.6313,0.15865 -0.0587,-2.163 -0.0742,-4.32746 -0.0971,-6.49366 -0.0356,-1.17523 -0.0486,-2.77518 -0.22635,-3.94137 -0.36605,-2.40053 -1.27257,-4.73467 -0.87799,-7.20886 0.14234,-2.79975 0.38414,-5.58437 0.89606,-8.34471 0.43963,-2.7239 0.93369,-5.43999 1.23767,-8.184 0.19756,-2.81248 0.64428,-5.6059 0.89037,-8.4155 0.39074,-2.83189 0.81683,-5.65846 1.30432,-8.47545 0.44548,-2.93837 0.92856,-5.87026 1.21648,-8.82996 0.27683,-2.96888 0.4754,-5.94258 0.84232,-8.90281 0.2535,-2.85783 0.23495,-5.73428 0.56534,-8.58759 0.19899,-2.67518 0.20145,-5.35777 0.44698,-8.03 0.19569,-2.42813 0.38865,-4.85549 0.55658,-7.2838 0.38762,-2.28719 0.6749,-4.59274 0.9529,-6.8957 0.16441,-1.14533 0.36928,-2.29467 0.49197,-3.44527 0.0778,-0.72963 0.0638,-1.46736 0.14623,-2.19624 0.0428,-0.37877 0.12308,-0.75242 0.18449,-1.12862 0.29028,-2.2095 0.73748,-4.39747 0.85937,-6.62905 0.28546,-2.20026 0.51184,-4.40794 0.86249,-6.5996 0.32197,-2.15521 0.41926,-4.33431 0.72088,-6.49262 0.22339,-2.01476 0.3736,-4.03299 0.7302,-6.03168 0.20823,-1.39134 0.43252,-2.78027 0.63458,-4.17235 -3.63607,2.12055 -8.47193,1.96632 -12.53877,0.19792 -0.44775,0.85292 -0.97983,1.62938 -1.58543,2.32905 -0.0864,0.59752 -0.1728,1.19503 -0.25837,1.79266 -1.47005,10.28465 -2.90081,20.57558 -4.33101,30.86582 -0.3932,2.86302 -0.91681,6.67025 -1.30689,9.54153 -0.20777,1.52948 -0.49892,3.05007 -0.6196,4.58887 -0.11821,1.50651 -0.0641,3.02174 -0.0961,4.53254 -0.0285,1.34627 -2.21454,1.05232 -1.88725,-0.25373 0.36798,-1.46584 0.81918,-2.9134 1.10382,-4.39767 0.29083,-1.51615 0.41227,-3.05995 0.62013,-4.5899 0.39018,-2.87229 0.91408,-6.67992 1.30741,-9.54412 1.43036,-10.29146 2.86078,-20.58357 4.33099,-30.86943 0.0283,-0.19743 0.0569,-0.3948 0.0853,-0.59221 -5.93598,5.39326 -16.83124,5.12392 -23.95514,0.56534 l -0.0196,0.36845 c -0.31803,5.9565 -3.45025,9.51857 -7.59023,11.14196 -0.42826,0.34172 -0.91134,0.70387 -1.45675,1.08882 -1.44999,1.02315 -4.89527,3.38201 -6.21567,4.60075 -0.94536,0.87257 -1.7567,1.88073 -2.60448,2.84841 -0.57285,0.65388 -1.1997,1.27127 -1.76321,1.93425 3.01805,3.42866 1.36303,5.90022 -2.30735,7.39644 -0.004,0.0526 -0.007,0.1012 -0.0119,0.15452 0.0848,4.41851 1.01479,4.91556 4.18632,7.56232 7.41154,6.18535 -5.67621,9.9974 -15.33136,9.33742 0.24768,2.84775 0.52192,5.69286 0.86868,8.52971 0.15346,1.01813 0.307,2.03647 0.46043,3.0546 1.30357,8.64729 -10.23162,10.52021 -14.19397,5.35626 -0.0674,0.86969 -0.14973,1.73844 -0.19275,2.60966 -0.21656,4.38945 -0.0961,8.78385 0.14004,13.16819 0.25191,4.25708 0.69805,8.49619 1.29294,12.71757 1.48037,10.5046 -15.71379,11.11979 -14.99341,0.53588 0.29165,-4.28465 0.44144,-8.57671 0.44443,-12.87208 -0.0164,-4.42513 -0.16315,-8.84999 -0.57516,-13.25862 -0.10276,-1.0996 -0.26995,-2.19221 -0.37827,-3.29128 -0.10464,-1.06184 -0.17362,-2.12706 -0.26046,-3.1905 -0.35202,-4.32844 -0.83362,-8.65049 -1.1131,-12.98474 -0.19836,1.09171 -0.4069,2.18107 -0.6568,3.26027 -0.22704,0.98047 -0.55121,1.9364 -0.80047,2.91145 -0.25932,1.01451 -0.48326,2.03729 -0.72501,3.05614 -1.33117,6.66021 -1.36681,13.46108 -1.93167,20.20084 -0.20312,7.1002 0.28712,14.18737 1.40147,21.19664 0.77057,4.41181 0.35631,2.22733 1.2397,6.5536 1.93789,9.49039 -14.69538,10.29249 -13.68237,0.65939 0.463,-4.40269 0.25908,-2.18305 0.60772,-6.65954 0.45816,-7.16933 0.26327,-14.34782 -0.29249,-21.50928 -0.15187,-1.20322 -0.33899,-2.40247 -0.45577,-3.6096 -0.11354,-1.17319 -0.14883,-2.35297 -0.23514,-3.52847 -0.33377,-4.54468 -0.78907,-9.08083 -1.41851,-13.59451 -0.39293,-2.10559 -0.89546,-4.19171 -1.23145,-6.30711 -0.57904,-3.64554 -0.68781,-7.40397 -1.19375,-11.06289 -0.39685,-4.82809 -0.58155,-9.67619 -0.84592,-14.51178 -0.19421,-1.49242 -0.44191,-2.97828 -0.59272,-4.4757 -0.25966,-2.57785 -0.0634,-5.17391 -0.077,-7.75818 -0.0927,-1.88312 -0.29401,-3.79227 -0.15552,-5.6782 0.0351,-0.47871 0.38081,-2.67401 0.43251,-3.15537 0.0585,-0.54429 0.0819,-1.09174 0.123,-1.63762 -0.0243,-3.48228 -0.072,-7.04213 0.66197,-10.45776 0.6101,-2.59638 1.32275,-5.14003 2.24948,-7.6414 0.23538,-0.62772 0.47734,-1.25228 0.71417,-1.87947 -1.06781,-1.56751 -2.19917,-3.02582 -3.61633,-4.408 -0.37893,-0.36958 -0.73567,-0.77647 -1.18337,-1.05885 -0.27059,-0.17063 -0.61426,-0.17922 -0.92142,-0.26872 -15.10146,-4.399957 4.54343,-8.554426 22.61775,-8.968959 -0.0544,-0.124756 -0.10483,-0.251897 -0.16277,-0.374653 -1.10926,-2.349775 -1.50326,-4.151074 -1.32032,-5.484421 -2.32685,-0.977632 -4.87596,-1.897218 -7.71065,-2.687174 -0.57811,-0.161105 -1.1248,-0.129932 -1.49243,-0.713134 -5.29297,-8.396507 0.42632,-13.00221 9.48573,-14.887464 0.72525,-1.078532 2.16128,-1.565455 4.09226,-1.5968 1.40425,-0.02281 3.07186,0.197662 4.91339,0.601514 0.67337,-0.02029 1.34736,-0.04051 2.02726,-0.04082 12.33861,-0.0059 25.39897,3.232618 26.80304,8.017081 3.10965,-0.99034 5.82975,-1.602446 7.83,-1.563729 2.88684,0.05589 4.27106,1.470927 3.18947,5.037936 1.02653,0.198567 2.04668,0.411239 3.06081,0.630968 0.0701,-0.317458 0.13792,-0.634201 0.22788,-0.959115 0.0675,-0.243324 0.1443,-0.484838 0.2191,-0.726569 -0.30363,-0.228246 -0.61933,-0.444966 -0.8206,-0.760162 -0.3809,-0.596426 -0.5071,-1.321601 -0.76071,-1.982308 -1.98866,-5.181502 -1.27852,-7.285638 1.10591,-7.408331 -0.33062,-1.230034 -0.7139,-2.451243 -1.17824,-3.763079 -0.2145,-0.605885 -0.3583,-1.240533 -0.63717,-1.819526 -0.18833,-0.390906 -0.50134,-0.708718 -0.7519,-1.062985 -0.2708,-0.382952 -0.51498,-0.750705 -0.73535,-1.10536 z m 99.40997,213.549745 c -0.19571,0.47152 -0.39407,0.95766 -0.59894,1.47125 0.22556,0.0996 0.45112,0.19949 0.67696,0.29868 0.0335,-0.0338 0.0677,-0.067 0.0992,-0.10284 0.49499,-0.56317 0.74216,-1.2396 0.94618,-1.92958 -0.38328,0.0734 -0.76131,0.16208 -1.12342,0.26249 z m -1.34927,8.93178 c 0.30938,1.79208 0.57486,3.63948 0.46612,4.34597 -0.16243,1.055 -0.77328,2.03901 -1.54049,2.94298 0.13475,1.74993 0.71665,3.40522 2.09238,4.82812 -0.18428,-2.88806 0.42431,-5.78178 1.07693,-8.66304 0.0668,-0.49281 0.35095,-2.17929 0.2217,-3.46541 -0.27207,-0.11628 -0.54354,-0.23894 -0.81907,-0.32091 -0.12163,-0.38695 -0.35187,-0.7725 -0.53745,-1.15858 -0.22984,0.10297 -0.44593,0.27728 -0.67591,0.3824 -0.0914,0.35975 -0.18835,0.73935 -0.28421,1.10847 z m 0.96012,-1.49087 c 0.11036,-0.0493 0.22312,-0.0867 0.34417,-0.0837 0.6546,0.0159 0.92562,0.70012 1.01235,1.56321 0.40986,0.17516 0.82121,0.33288 1.25264,0.29507 1.04312,-0.0914 1.89735,-1.11697 2.49338,-2.34715 -1.58377,-0.58629 -3.24093,-1.17856 -4.99195,-1.77715 -0.12324,0.34319 -0.24045,0.69257 -0.34414,1.05574 -0.1239,0.43386 0.0272,0.8645 0.23355,1.294 z M 522.49448,64.271495 c -0.44522,0.43743 -9.25609,-1.585104 -9.68643,-1.135074 -0.19272,0.201559 0.38191,0.228454 0.2361,0.460731 0.16211,2.606726 0.27575,5.216385 0.39375,7.825362 0.12597,2.76434 0.20294,5.530768 0.30231,8.296135 0.10634,2.795603 0.15812,5.592937 0.22532,8.389667 0.0474,2.805803 0.0886,5.612371 0.14158,8.418092 0.0469,2.797194 0.10494,5.593992 0.15452,8.391222 0.0592,2.84796 0.0562,5.69702 0.0543,8.54573 -0.006,3.00577 -0.0268,6.01177 -0.0377,9.01754 0.0214,3.15947 -0.1051,6.31665 -0.21239,9.47384 -0.0991,3.44606 -0.19843,6.89244 -0.32557,10.33787 -0.12311,3.45314 -0.22039,6.90816 -0.3421,10.36164 -0.1274,3.29663 -0.25191,6.59414 -0.36277,9.89138 -0.11007,3.20649 -0.29086,6.41052 -0.48059,9.61285 -0.1796,3.0834 -0.4019,6.16425 -0.60823,9.24595 -0.19912,2.98688 -0.41383,5.97268 -0.61494,8.95914 -0.20868,2.93161 -0.38436,5.8655 -0.56483,8.79895 -0.18942,2.91652 -0.31666,5.83618 -0.43873,8.75606 -0.13957,2.95468 -0.23043,5.91121 -0.31264,8.86819 -0.0905,3.0047 -0.1312,6.01132 -0.1421,9.01754 -0.0135,3.00037 -0.0457,6.00133 -0.0367,9.00203 0.009,2.93148 0.0455,5.86265 0.0884,8.79378 0.0461,2.78656 0.0965,5.5734 0.14057,8.35969 0.0246,2.67845 0.0759,5.35629 0.13539,8.03414 0.0544,2.54041 0.12496,5.08016 0.21135,7.61968 2.12566,3.22255 3.31933,7.39902 2.99879,12.51397 -0.0167,0.26501 -0.033,0.52978 -0.0496,0.79479 -0.0751,1.65605 -0.0444,3.31652 -0.21601,4.96818 -0.10779,1.66561 -0.10586,3.33846 -0.29199,4.99864 -0.13211,1.57496 -0.16219,3.15881 -0.41701,4.72221 -0.18487,1.6011 -0.26848,3.20839 -0.38346,4.81573 -0.10232,1.25979 -0.25699,2.51119 -0.40617,3.76463 0.0767,2.39622 0.19704,4.79046 0.28991,7.18611 0.0799,2.21051 0.18251,4.4201 0.28784,6.62958 0.0754,0.10179 0.15536,0.19992 0.22323,0.30747 h 213.5782 V 61.820515 Z m -11.27503,46.470065 c -0.0206,0.83018 -0.0449,1.6602 -0.0517,2.49029 -0.0813,2.25645 -0.34597,4.49818 -0.54573,6.74532 -0.36312,2.22358 -0.47284,4.48198 -0.88831,6.69572 -0.32354,2.07794 -0.53092,4.1711 -0.81648,6.25388 -0.22678,2.06877 -0.68075,4.0926 -1.05937,6.13503 -0.33528,2.09869 -0.82894,4.16526 -1.11622,6.27145 -0.26628,2.14971 -0.64516,4.28174 -0.95859,6.42441 -0.49006,2.20581 -0.66966,4.45756 -1.00253,6.68693 -0.0401,0.35823 -0.0618,0.7192 -0.12041,1.07487 -0.12811,0.7773 -0.3515,1.53647 -0.48988,2.31201 -0.19873,1.11357 -0.32583,2.24653 -0.48006,3.36723 -0.39544,2.26252 -0.70702,4.53998 -0.96017,6.82232 -0.48792,2.33242 -0.9394,4.67356 -1.38491,7.01663 -0.46844,2.53449 -1.11847,5.02537 -1.56427,7.5644 -0.3543,2.79055 -1.06167,5.51963 -1.47484,8.29871 -0.33864,2.94112 -0.84254,5.85564 -1.25055,8.78707 -0.41397,2.97417 -0.61331,5.96902 -0.87077,8.95914 -0.16979,2.84171 -0.41807,5.67719 -0.69091,8.51007 -0.38013,2.79635 -0.5974,5.61799 -1.06452,8.40104 -0.31258,2.80414 -0.48459,5.62119 -0.72917,8.43153 -0.16952,2.63422 -0.54398,5.23792 -0.98806,7.83725 -0.0845,1.35556 -0.57827,2.52134 -1.16427,3.71656 -0.19886,0.40569 -0.45421,0.79014 -0.5865,1.22215 -0.26358,0.86086 -0.26813,2.09271 -0.31163,2.97501 -0.0602,2.0909 0.14288,4.17241 0.37674,6.25027 5.57366,-1.10986 11.63804,0.22864 16.05637,3.90467 -0.0249,-1.28 -0.0562,-2.55988 -0.0718,-3.84008 -0.0443,-2.68575 -0.0772,-5.37209 -0.0997,-8.05842 -0.0222,-2.78706 -0.0412,-5.5742 -0.063,-8.36125 -0.0254,-2.94147 -0.0387,-5.88342 -0.0284,-8.8253 1.1e-4,-3.00953 0.003,-6.01968 0.0346,-9.02942 0.0349,-3.02704 0.0553,-6.05433 0.12454,-9.08058 0.0866,-2.97 0.16899,-5.94033 0.29921,-8.9085 0.1214,-2.93955 0.24242,-5.88012 0.43977,-8.81548 0.17775,-2.94306 0.37634,-5.88472 0.57618,-8.82634 0.21823,-2.98483 0.44622,-5.96882 0.65577,-8.95397 0.22135,-3.07322 0.45559,-6.14576 0.66818,-9.2196 0.20524,-3.17957 0.38325,-6.36129 0.50231,-9.54567 0.14888,-3.29569 0.29205,-6.59256 0.43511,-9.8888 0.1497,-3.44638 0.28662,-6.89344 0.41288,-10.34045 0.0995,-3.43849 0.15441,-6.87852 0.23617,-10.3172 0.048,-3.13978 0.0355,-6.27982 0.0512,-9.41958 0.0206,-2.99533 0.05,-5.99072 0.006,-8.98602 -0.0101,-0.9125 -0.0288,-1.82486 -0.0424,-2.7373 z m -62.88246,164.23029 c -0.82103,0.76206 -1.54694,1.63497 -2.1699,2.62102 1.48148,0.64455 2.96904,1.27921 4.46172,1.90066 0.0589,-0.38695 0.0856,-0.74036 0.0693,-1.02473 -0.036,-0.62741 -0.31356,-1.21716 -0.47025,-1.82573 -0.65026,-0.5003 -1.15512,-1.41518 -1.89084,-1.67122 z m 8.08114,4.75009 c -2.20324,0.004 -2.15085,0.0509 -3.05406,0.86868 1.74347,-0.14181 3.54896,-0.64558 5.34334,-0.79943 -0.72374,-0.0451 -1.47767,-0.0706 -2.28928,-0.0692 z m -14.64821,15.61661 c -0.18407,0.0296 -0.10422,0.37235 -0.0677,0.55502 0.18929,0.93075 0.12441,2.0274 0.69557,2.77347 -0.0789,-0.24517 -0.15883,-0.48964 -0.23564,-0.73586 -0.20712,-0.66389 -0.17082,-1.38004 -0.25633,-2.07018 -0.0452,-0.1741 0.0417,-0.55105 -0.13592,-0.52245 z m 4.24318,0.47956 c -0.0752,-0.0167 -0.16939,0.0711 -0.2527,0.32091 -0.11055,0.33145 -0.14833,0.68181 -0.20053,1.02836 0.0989,0.0788 0.19275,0.15917 0.29768,0.23617 0.0771,-0.23112 0.15163,-0.47705 0.22633,-0.77928 0.0406,-0.16433 0.0762,-0.33372 0.0682,-0.50282 -0.008,-0.16594 -0.0639,-0.28678 -0.13901,-0.30334 z m 24.90647,0.7488 c 2.1e-4,0 1.1e-4,0.003 0.003,0.004 v -0.004 z m 0.003,0.004 c 0.0175,0.0778 0.0385,0.15507 0.0579,0.23254 0.0188,0.0857 0.009,0.10131 0.0164,0.16383 0.0369,-0.0156 0.0737,-0.0308 0.1106,-0.0465 8e-5,-0.003 0,-0.005 0,-0.009 -0.0606,-0.10189 -0.12248,-0.20373 -0.17365,-0.31057 -0.005,-0.0101 -0.009,-0.0243 -0.0114,-0.03 z m -24.31788,1.30278 c -0.0122,0 -0.0241,0.005 -0.0362,0.006 0.11295,0.0697 0.23667,0.13623 0.35552,0.20412 -0.0424,-0.10445 -0.10147,-0.18851 -0.20204,-0.20515 -0.0395,-0.007 -0.0787,-0.008 -0.11731,-0.005 z m -0.59841,2.34506 c 0.12139,0.65093 0.26257,1.25746 0.48368,1.86399 0.0628,-0.13311 0.12306,-0.22987 0.16021,-0.21394 0.18304,0.0787 0.0148,0.3869 -0.0476,0.49969 -0.0386,-0.0951 -0.0781,-0.19053 -0.11266,-0.28525 -0.0227,0.0482 -0.0452,0.0874 -0.0682,0.14833 -0.28929,-0.5184 -0.55729,-1.04672 -0.77568,-1.59835 -0.0545,-0.13753 -0.0991,-0.27477 -0.14829,-0.41238 -0.12534,0.004 -0.27311,0.009 -0.4036,0.0145 -0.16994,0.67818 -0.21196,1.35617 0.13901,1.8247 0.0905,0.12075 0.76052,0.30014 1.1343,0.34623 -0.0676,0.21365 -0.1288,0.45551 -0.15349,0.69403 -0.0183,0.17587 -0.0283,0.3279 -0.0393,0.48265 0.47781,0.58534 0.97274,1.14083 1.49757,1.63658 0.0319,-0.23775 0.0561,-0.4758 0.0744,-0.71416 -0.11906,-0.21214 -0.23984,-0.4237 -0.3638,-0.63354 0.11287,0.17833 0.23752,0.36211 0.37052,0.54983 0.0599,-0.8609 0.0265,-1.72382 -0.17518,-2.57866 -0.0459,-0.31454 -0.0921,-0.6291 -0.13798,-0.94361 -0.0388,-0.17751 -0.0818,-0.35441 -0.12144,-0.53176 -0.42762,-0.1102 -0.86013,-0.14449 -1.31257,-0.14883 z m -1.12914,0.0243 c -0.25802,0.0109 -0.4962,0.0217 -0.7798,0.0274 -0.0441,0.13978 -0.086,0.26289 -0.1297,0.39791 0.26524,0.35814 0.53287,0.71413 0.79994,1.07743 -0.007,-0.26548 -0.008,-0.53247 0,-0.80253 0.007,-0.23736 0.0535,-0.46937 0.11059,-0.70022 z m -1.31672,1.65055 c -1.62613,4.75726 -2.49103,6.42988 2.08412,11.22516 0.54388,-1.35075 0.9779,-2.73301 1.2764,-4.17184 -0.69231,-1.14041 -1.21838,-2.31228 -1.57871,-3.52587 -0.69639,-1.09736 -1.27395,-2.28719 -1.78181,-3.52745 z m 2.86133,0.33901 c 0.0343,0.0616 0.0704,0.12213 0.10541,0.18344 0.0161,0 0.0382,0.003 0.0501,0 0.003,-0.006 0.0167,-0.0307 0.0254,-0.0465 0.12142,0.29956 0.26403,0.6028 0.43458,0.91569 -0.17243,-0.28866 -0.34396,-0.57755 -0.51004,-0.8692 -0.042,0 -0.0952,-0.003 -0.15967,-0.0103 0.0188,-0.0585 0.0347,-0.12134 0.0543,-0.17312 z m 0.11885,4.8364 c 0.0406,0.2023 0.0758,0.36473 0.11989,0.6041 0.13216,0.19354 0.25892,0.3911 0.38862,0.58652 0.0143,-0.0815 0.032,-0.16158 0.0455,-0.24341 0.0222,-0.0869 0.0432,-0.17476 0.0651,-0.26199 -0.21389,-0.22233 -0.42159,-0.44977 -0.61908,-0.68522 z m 3.32746,5.39604 c 0.0713,0.0968 0.14396,0.19246 0.21651,0.28835 0.003,-0.0241 0.007,-0.0509 0.01,-0.0749 -0.0761,-0.0706 -0.15063,-0.14251 -0.22633,-0.21342 z"
         sodipodi:nodetypes="cccscsccccccssccsccccscccsccccccccccccccccssccccccccccssscsscsccsccssccccccccccsscssccsscccssccsscsccscssccccssccccsccscccsccccsccsssccsccscsscsccccccccsccsccssscsccccccccccccccccccccccccscccccccccccccccccccccsscccccscccccssccccccccccccccccccccccsccscsssccsssccscssssccscssccccccccccccscccssccccccsccscsccccccccccscccscsccccccccccccscsccccsscccsc" /></clipPath><clipPath
       clipPathUnits="userSpaceOnUse"
       id="clipPath5406-6"><path
         id="path5408-2"
         style="fill:#ff0000;fill-opacity:1;fill-rule:nonzero;stroke:none;stroke-width:0.264583"
         d="M 345.64608,61.820515 V 318.31494 h 97.04319 c 0.33131,-0.64987 0.73102,-1.30775 1.20923,-1.97302 0.11215,-0.15603 0.22423,-0.31216 0.33639,-0.46818 -2.25293,-1.83687 -4.31234,-4.26839 -6.18617,-7.22125 -1.66243,-2.61977 -1.2173,-6.17527 -0.91366,-9.26301 0.16893,-1.7145 1.52254,-3.09136 2.28359,-4.63693 0.89379,-0.89667 2.19247,-1.95823 3.21376,-3.16156 -0.1828,-2.37413 0.45593,-4.90833 1.07437,-7.28895 -0.2866,-1.66047 -0.61087,-3.27567 -0.71057,-3.85612 0.0748,-0.17735 0.13767,-0.33779 0.20982,-0.51159 -0.49649,-0.16569 -0.97076,-0.33036 -1.48053,-0.4966 -0.78523,-0.25612 1.39787,-0.8813 2.07944,-1.34774 0.0674,-0.0461 0.13811,-0.0894 0.20722,-0.13382 0.15105,-0.37867 0.30202,-0.75639 0.44495,-1.11466 -0.25746,-0.11375 -0.51596,-0.22572 -0.77308,-0.34005 -0.76306,-0.33927 0.14996,-0.79232 1.37202,-1.1312 0.43016,-1.03642 0.85275,-1.97934 1.30638,-2.80963 -0.1347,-0.57457 -0.51311,-1.72125 -0.81341,-2.94556 -0.0206,-0.0103 -0.0431,-0.022 -0.0635,-0.032 -0.47014,1.2659 -0.91784,2.63954 -1.3906,4.11705 -0.60637,1.89505 0.0967,0.45633 -0.48268,1.55755 -1.43687,-6.2992 -1.74588,-7.46805 1.87328,-5.6746 0.0114,-0.0309 0.023,-0.0607 0.0346,-0.0915 -0.51424,-2.14636 -0.7361,-4.43442 1.13067,-4.08091 0.23167,0.0439 0.46212,0.0937 0.6935,0.13901 2.12902,-3.54773 5.3022,-5.54992 11.7724,-5.59241 1.10625,-0.007 2.32116,0.0495 3.6313,0.15865 -0.0587,-2.163 -0.0742,-4.32746 -0.0971,-6.49366 -0.0356,-1.17523 -0.0486,-2.77518 -0.22635,-3.94137 -0.36605,-2.40053 -1.27257,-4.73467 -0.87799,-7.20886 0.14234,-2.79975 0.38414,-5.58437 0.89606,-8.34471 0.43963,-2.7239 0.93369,-5.43999 1.23767,-8.184 0.19756,-2.81248 0.64428,-5.6059 0.89037,-8.4155 0.39074,-2.83189 0.81683,-5.65846 1.30432,-8.47545 0.44548,-2.93837 0.92856,-5.87026 1.21648,-8.82996 0.27683,-2.96888 0.4754,-5.94258 0.84232,-8.90281 0.2535,-2.85783 0.23495,-5.73428 0.56534,-8.58759 0.19899,-2.67518 0.20145,-5.35777 0.44698,-8.03 0.19569,-2.42813 0.38865,-4.85549 0.55658,-7.2838 0.38762,-2.28719 0.6749,-4.59274 0.9529,-6.8957 0.16441,-1.14533 0.36928,-2.29467 0.49197,-3.44527 0.0778,-0.72963 0.0638,-1.46736 0.14623,-2.19624 0.0428,-0.37877 0.12308,-0.75242 0.18449,-1.12862 0.29028,-2.2095 0.73748,-4.39747 0.85937,-6.62905 0.28546,-2.20026 0.51184,-4.40794 0.86249,-6.5996 0.32197,-2.15521 0.41926,-4.33431 0.72088,-6.49262 0.22339,-2.01476 0.3736,-4.03299 0.7302,-6.03168 0.20823,-1.39134 0.43252,-2.78027 0.63458,-4.17235 -3.63607,2.12055 -8.47193,1.96632 -12.53877,0.19792 -0.44775,0.85292 -0.97983,1.62938 -1.58543,2.32905 -0.0864,0.59752 -0.1728,1.19503 -0.25837,1.79266 -1.47005,10.28465 -2.90081,20.57558 -4.33101,30.86582 -0.3932,2.86302 -0.91681,6.67025 -1.30689,9.54153 -0.20777,1.52948 -0.49892,3.05007 -0.6196,4.58887 -0.11821,1.50651 -0.0641,3.02174 -0.0961,4.53254 -0.0285,1.34627 -2.21454,1.05232 -1.88725,-0.25373 0.36798,-1.46584 0.81918,-2.9134 1.10382,-4.39767 0.29083,-1.51615 0.41227,-3.05995 0.62013,-4.5899 0.39018,-2.87229 0.91408,-6.67992 1.30741,-9.54412 1.43036,-10.29146 2.86078,-20.58357 4.33099,-30.86943 0.0283,-0.19743 0.0569,-0.3948 0.0853,-0.59221 -5.93598,5.39326 -16.83124,5.12392 -23.95514,0.56534 l -0.0196,0.36845 c -0.31803,5.9565 -3.45025,9.51857 -7.59023,11.14196 -0.42826,0.34172 -0.91134,0.70387 -1.45675,1.08882 -1.44999,1.02315 -4.89527,3.38201 -6.21567,4.60075 -0.94536,0.87257 -1.7567,1.88073 -2.60448,2.84841 -0.57285,0.65388 -1.1997,1.27127 -1.76321,1.93425 3.01805,3.42866 1.36303,5.90022 -2.30735,7.39644 -0.004,0.0526 -0.007,0.1012 -0.0119,0.15452 0.0848,4.41851 1.01479,4.91556 4.18632,7.56232 7.41154,6.18535 -5.67621,9.9974 -15.33136,9.33742 0.24768,2.84775 0.52192,5.69286 0.86868,8.52971 0.15346,1.01813 0.307,2.03647 0.46043,3.0546 1.30357,8.64729 -10.23162,10.52021 -14.19397,5.35626 -0.0674,0.86969 -0.14973,1.73844 -0.19275,2.60966 -0.21656,4.38945 -0.0961,8.78385 0.14004,13.16819 0.25191,4.25708 0.69805,8.49619 1.29294,12.71757 1.48037,10.5046 -15.71379,11.11979 -14.99341,0.53588 0.29165,-4.28465 0.44144,-8.57671 0.44443,-12.87208 -0.0164,-4.42513 -0.16315,-8.84999 -0.57516,-13.25862 -0.10276,-1.0996 -0.26995,-2.19221 -0.37827,-3.29128 -0.10464,-1.06184 -0.17362,-2.12706 -0.26046,-3.1905 -0.35202,-4.32844 -0.83362,-8.65049 -1.1131,-12.98474 -0.19836,1.09171 -0.4069,2.18107 -0.6568,3.26027 -0.22704,0.98047 -0.55121,1.9364 -0.80047,2.91145 -0.25932,1.01451 -0.48326,2.03729 -0.72501,3.05614 -1.33117,6.66021 -1.36681,13.46108 -1.93167,20.20084 -0.20312,7.1002 0.28712,14.18737 1.40147,21.19664 0.77057,4.41181 0.35631,2.22733 1.2397,6.5536 1.93789,9.49039 -14.69538,10.29249 -13.68237,0.65939 0.463,-4.40269 0.25908,-2.18305 0.60772,-6.65954 0.45816,-7.16933 0.26327,-14.34782 -0.29249,-21.50928 -0.15187,-1.20322 -0.33899,-2.40247 -0.45577,-3.6096 -0.11354,-1.17319 -0.14883,-2.35297 -0.23514,-3.52847 -0.33377,-4.54468 -0.78907,-9.08083 -1.41851,-13.59451 -0.39293,-2.10559 -0.89546,-4.19171 -1.23145,-6.30711 -0.57904,-3.64554 -0.68781,-7.40397 -1.19375,-11.06289 -0.39685,-4.82809 -0.58155,-9.67619 -0.84592,-14.51178 -0.19421,-1.49242 -0.44191,-2.97828 -0.59272,-4.4757 -0.25966,-2.57785 -0.0634,-5.17391 -0.077,-7.75818 -0.0927,-1.88312 -0.29401,-3.79227 -0.15552,-5.6782 0.0351,-0.47871 0.38081,-2.67401 0.43251,-3.15537 0.0585,-0.54429 0.0819,-1.09174 0.123,-1.63762 -0.0243,-3.48228 -0.072,-7.04213 0.66197,-10.45776 0.6101,-2.59638 1.32275,-5.14003 2.24948,-7.6414 0.23538,-0.62772 0.47734,-1.25228 0.71417,-1.87947 -1.06781,-1.56751 -2.19917,-3.02582 -3.61633,-4.408 -0.37893,-0.36958 -0.73567,-0.77647 -1.18337,-1.05885 -0.27059,-0.17063 -0.61426,-0.17922 -0.92142,-0.26872 -15.10146,-4.399957 4.54343,-8.554426 22.61775,-8.968959 -0.0544,-0.124756 -0.10483,-0.251897 -0.16277,-0.374653 -1.10926,-2.349775 -1.50326,-4.151074 -1.32032,-5.484421 -2.32685,-0.977632 -4.87596,-1.897218 -7.71065,-2.687174 -0.57811,-0.161105 -1.1248,-0.129932 -1.49243,-0.713134 -5.29297,-8.396507 0.42632,-13.00221 9.48573,-14.887464 0.72525,-1.078532 2.16128,-1.565455 4.09226,-1.5968 1.40425,-0.02281 3.07186,0.197662 4.91339,0.601514 0.67337,-0.02029 1.34736,-0.04051 2.02726,-0.04082 12.33861,-0.0059 25.39897,3.232618 26.80304,8.017081 3.10965,-0.99034 5.82975,-1.602446 7.83,-1.563729 2.88684,0.05589 4.27106,1.470927 3.18947,5.037936 1.02653,0.198567 2.04668,0.411239 3.06081,0.630968 0.0701,-0.317458 0.13792,-0.634201 0.22788,-0.959115 0.0675,-0.243324 0.1443,-0.484838 0.2191,-0.726569 -0.30363,-0.228246 -0.61933,-0.444966 -0.8206,-0.760162 -0.3809,-0.596426 -0.5071,-1.321601 -0.76071,-1.982308 -1.98866,-5.181502 -1.27852,-7.285638 1.10591,-7.408331 -0.33062,-1.230034 -0.7139,-2.451243 -1.17824,-3.763079 -0.2145,-0.605885 -0.3583,-1.240533 -0.63717,-1.819526 -0.18833,-0.390906 -0.50134,-0.708718 -0.7519,-1.062985 -0.2708,-0.382952 -0.51498,-0.750705 -0.73535,-1.10536 z m 99.40997,213.549745 c -0.19571,0.47152 -0.39407,0.95766 -0.59894,1.47125 0.22556,0.0996 0.45112,0.19949 0.67696,0.29868 0.0335,-0.0338 0.0677,-0.067 0.0992,-0.10284 0.49499,-0.56317 0.74216,-1.2396 0.94618,-1.92958 -0.38328,0.0734 -0.76131,0.16208 -1.12342,0.26249 z m -1.34927,8.93178 c 0.30938,1.79208 0.57486,3.63948 0.46612,4.34597 -0.16243,1.055 -0.77328,2.03901 -1.54049,2.94298 0.13475,1.74993 0.71665,3.40522 2.09238,4.82812 -0.18428,-2.88806 0.42431,-5.78178 1.07693,-8.66304 0.0668,-0.49281 0.35095,-2.17929 0.2217,-3.46541 -0.27207,-0.11628 -0.54354,-0.23894 -0.81907,-0.32091 -0.12163,-0.38695 -0.35187,-0.7725 -0.53745,-1.15858 -0.22984,0.10297 -0.44593,0.27728 -0.67591,0.3824 -0.0914,0.35975 -0.18835,0.73935 -0.28421,1.10847 z m 0.96012,-1.49087 c 0.11036,-0.0493 0.22312,-0.0867 0.34417,-0.0837 0.6546,0.0159 0.92562,0.70012 1.01235,1.56321 0.40986,0.17516 0.82121,0.33288 1.25264,0.29507 1.04312,-0.0914 1.89735,-1.11697 2.49338,-2.34715 -1.58377,-0.58629 -3.24093,-1.17856 -4.99195,-1.77715 -0.12324,0.34319 -0.24045,0.69257 -0.34414,1.05574 -0.1239,0.43386 0.0272,0.8645 0.23355,1.294 z M 522.49448,64.271495 c -0.44522,0.43743 -9.25609,-1.585104 -9.68643,-1.135074 -0.19272,0.201559 0.38191,0.228454 0.2361,0.460731 0.16211,2.606726 0.27575,5.216385 0.39375,7.825362 0.12597,2.76434 0.20294,5.530768 0.30231,8.296135 0.10634,2.795603 0.15812,5.592937 0.22532,8.389667 0.0474,2.805803 0.0886,5.612371 0.14158,8.418092 0.0469,2.797194 0.10494,5.593992 0.15452,8.391222 0.0592,2.84796 0.0562,5.69702 0.0543,8.54573 -0.006,3.00577 -0.0268,6.01177 -0.0377,9.01754 0.0214,3.15947 -0.1051,6.31665 -0.21239,9.47384 -0.0991,3.44606 -0.19843,6.89244 -0.32557,10.33787 -0.12311,3.45314 -0.22039,6.90816 -0.3421,10.36164 -0.1274,3.29663 -0.25191,6.59414 -0.36277,9.89138 -0.11007,3.20649 -0.29086,6.41052 -0.48059,9.61285 -0.1796,3.0834 -0.4019,6.16425 -0.60823,9.24595 -0.19912,2.98688 -0.41383,5.97268 -0.61494,8.95914 -0.20868,2.93161 -0.38436,5.8655 -0.56483,8.79895 -0.18942,2.91652 -0.31666,5.83618 -0.43873,8.75606 -0.13957,2.95468 -0.23043,5.91121 -0.31264,8.86819 -0.0905,3.0047 -0.1312,6.01132 -0.1421,9.01754 -0.0135,3.00037 -0.0457,6.00133 -0.0367,9.00203 0.009,2.93148 0.0455,5.86265 0.0884,8.79378 0.0461,2.78656 0.0965,5.5734 0.14057,8.35969 0.0246,2.67845 0.0759,5.35629 0.13539,8.03414 0.0544,2.54041 0.12496,5.08016 0.21135,7.61968 2.12566,3.22255 3.31933,7.39902 2.99879,12.51397 -0.0167,0.26501 -0.033,0.52978 -0.0496,0.79479 -0.0751,1.65605 -0.0444,3.31652 -0.21601,4.96818 -0.10779,1.66561 -0.10586,3.33846 -0.29199,4.99864 -0.13211,1.57496 -0.16219,3.15881 -0.41701,4.72221 -0.18487,1.6011 -0.26848,3.20839 -0.38346,4.81573 -0.10232,1.25979 -0.25699,2.51119 -0.40617,3.76463 0.0767,2.39622 0.19704,4.79046 0.28991,7.18611 0.0799,2.21051 0.18251,4.4201 0.28784,6.62958 0.0754,0.10179 0.15536,0.19992 0.22323,0.30747 h 213.5782 V 61.820515 Z m -11.27503,46.470065 c -0.0206,0.83018 -0.0449,1.6602 -0.0517,2.49029 -0.0813,2.25645 -0.34597,4.49818 -0.54573,6.74532 -0.36312,2.22358 -0.47284,4.48198 -0.88831,6.69572 -0.32354,2.07794 -0.53092,4.1711 -0.81648,6.25388 -0.22678,2.06877 -0.68075,4.0926 -1.05937,6.13503 -0.33528,2.09869 -0.82894,4.16526 -1.11622,6.27145 -0.26628,2.14971 -0.64516,4.28174 -0.95859,6.42441 -0.49006,2.20581 -0.66966,4.45756 -1.00253,6.68693 -0.0401,0.35823 -0.0618,0.7192 -0.12041,1.07487 -0.12811,0.7773 -0.3515,1.53647 -0.48988,2.31201 -0.19873,1.11357 -0.32583,2.24653 -0.48006,3.36723 -0.39544,2.26252 -0.70702,4.53998 -0.96017,6.82232 -0.48792,2.33242 -0.9394,4.67356 -1.38491,7.01663 -0.46844,2.53449 -1.11847,5.02537 -1.56427,7.5644 -0.3543,2.79055 -1.06167,5.51963 -1.47484,8.29871 -0.33864,2.94112 -0.84254,5.85564 -1.25055,8.78707 -0.41397,2.97417 -0.61331,5.96902 -0.87077,8.95914 -0.16979,2.84171 -0.41807,5.67719 -0.69091,8.51007 -0.38013,2.79635 -0.5974,5.61799 -1.06452,8.40104 -0.31258,2.80414 -0.48459,5.62119 -0.72917,8.43153 -0.16952,2.63422 -0.54398,5.23792 -0.98806,7.83725 -0.0845,1.35556 -0.57827,2.52134 -1.16427,3.71656 -0.19886,0.40569 -0.45421,0.79014 -0.5865,1.22215 -0.26358,0.86086 -0.26813,2.09271 -0.31163,2.97501 -0.0602,2.0909 0.14288,4.17241 0.37674,6.25027 5.57366,-1.10986 11.63804,0.22864 16.05637,3.90467 -0.0249,-1.28 -0.0562,-2.55988 -0.0718,-3.84008 -0.0443,-2.68575 -0.0772,-5.37209 -0.0997,-8.05842 -0.0222,-2.78706 -0.0412,-5.5742 -0.063,-8.36125 -0.0254,-2.94147 -0.0387,-5.88342 -0.0284,-8.8253 1.1e-4,-3.00953 0.003,-6.01968 0.0346,-9.02942 0.0349,-3.02704 0.0553,-6.05433 0.12454,-9.08058 0.0866,-2.97 0.16899,-5.94033 0.29921,-8.9085 0.1214,-2.93955 0.24242,-5.88012 0.43977,-8.81548 0.17775,-2.94306 0.37634,-5.88472 0.57618,-8.82634 0.21823,-2.98483 0.44622,-5.96882 0.65577,-8.95397 0.22135,-3.07322 0.45559,-6.14576 0.66818,-9.2196 0.20524,-3.17957 0.38325,-6.36129 0.50231,-9.54567 0.14888,-3.29569 0.29205,-6.59256 0.43511,-9.8888 0.1497,-3.44638 0.28662,-6.89344 0.41288,-10.34045 0.0995,-3.43849 0.15441,-6.87852 0.23617,-10.3172 0.048,-3.13978 0.0355,-6.27982 0.0512,-9.41958 0.0206,-2.99533 0.05,-5.99072 0.006,-8.98602 -0.0101,-0.9125 -0.0288,-1.82486 -0.0424,-2.7373 z m -62.88246,164.23029 c -0.82103,0.76206 -1.54694,1.63497 -2.1699,2.62102 1.48148,0.64455 2.96904,1.27921 4.46172,1.90066 0.0589,-0.38695 0.0856,-0.74036 0.0693,-1.02473 -0.036,-0.62741 -0.31356,-1.21716 -0.47025,-1.82573 -0.65026,-0.5003 -1.15512,-1.41518 -1.89084,-1.67122 z m 8.08114,4.75009 c -2.20324,0.004 -2.15085,0.0509 -3.05406,0.86868 1.74347,-0.14181 3.54896,-0.64558 5.34334,-0.79943 -0.72374,-0.0451 -1.47767,-0.0706 -2.28928,-0.0692 z m -14.64821,15.61661 c -0.18407,0.0296 -0.10422,0.37235 -0.0677,0.55502 0.18929,0.93075 0.12441,2.0274 0.69557,2.77347 -0.0789,-0.24517 -0.15883,-0.48964 -0.23564,-0.73586 -0.20712,-0.66389 -0.17082,-1.38004 -0.25633,-2.07018 -0.0452,-0.1741 0.0417,-0.55105 -0.13592,-0.52245 z m 4.24318,0.47956 c -0.0752,-0.0167 -0.16939,0.0711 -0.2527,0.32091 -0.11055,0.33145 -0.14833,0.68181 -0.20053,1.02836 0.0989,0.0788 0.19275,0.15917 0.29768,0.23617 0.0771,-0.23112 0.15163,-0.47705 0.22633,-0.77928 0.0406,-0.16433 0.0762,-0.33372 0.0682,-0.50282 -0.008,-0.16594 -0.0639,-0.28678 -0.13901,-0.30334 z m 24.90647,0.7488 c 2.1e-4,0 1.1e-4,0.003 0.003,0.004 v -0.004 z m 0.003,0.004 c 0.0175,0.0778 0.0385,0.15507 0.0579,0.23254 0.0188,0.0857 0.009,0.10131 0.0164,0.16383 0.0369,-0.0156 0.0737,-0.0308 0.1106,-0.0465 8e-5,-0.003 0,-0.005 0,-0.009 -0.0606,-0.10189 -0.12248,-0.20373 -0.17365,-0.31057 -0.005,-0.0101 -0.009,-0.0243 -0.0114,-0.03 z m -24.31788,1.30278 c -0.0122,0 -0.0241,0.005 -0.0362,0.006 0.11295,0.0697 0.23667,0.13623 0.35552,0.20412 -0.0424,-0.10445 -0.10147,-0.18851 -0.20204,-0.20515 -0.0395,-0.007 -0.0787,-0.008 -0.11731,-0.005 z m -0.59841,2.34506 c 0.12139,0.65093 0.26257,1.25746 0.48368,1.86399 0.0628,-0.13311 0.12306,-0.22987 0.16021,-0.21394 0.18304,0.0787 0.0148,0.3869 -0.0476,0.49969 -0.0386,-0.0951 -0.0781,-0.19053 -0.11266,-0.28525 -0.0227,0.0482 -0.0452,0.0874 -0.0682,0.14833 -0.28929,-0.5184 -0.55729,-1.04672 -0.77568,-1.59835 -0.0545,-0.13753 -0.0991,-0.27477 -0.14829,-0.41238 -0.12534,0.004 -0.27311,0.009 -0.4036,0.0145 -0.16994,0.67818 -0.21196,1.35617 0.13901,1.8247 0.0905,0.12075 0.76052,0.30014 1.1343,0.34623 -0.0676,0.21365 -0.1288,0.45551 -0.15349,0.69403 -0.0183,0.17587 -0.0283,0.3279 -0.0393,0.48265 0.47781,0.58534 0.97274,1.14083 1.49757,1.63658 0.0319,-0.23775 0.0561,-0.4758 0.0744,-0.71416 -0.11906,-0.21214 -0.23984,-0.4237 -0.3638,-0.63354 0.11287,0.17833 0.23752,0.36211 0.37052,0.54983 0.0599,-0.8609 0.0265,-1.72382 -0.17518,-2.57866 -0.0459,-0.31454 -0.0921,-0.6291 -0.13798,-0.94361 -0.0388,-0.17751 -0.0818,-0.35441 -0.12144,-0.53176 -0.42762,-0.1102 -0.86013,-0.14449 -1.31257,-0.14883 z m -1.12914,0.0243 c -0.25802,0.0109 -0.4962,0.0217 -0.7798,0.0274 -0.0441,0.13978 -0.086,0.26289 -0.1297,0.39791 0.26524,0.35814 0.53287,0.71413 0.79994,1.07743 -0.007,-0.26548 -0.008,-0.53247 0,-0.80253 0.007,-0.23736 0.0535,-0.46937 0.11059,-0.70022 z m -1.31672,1.65055 c -1.62613,4.75726 -2.49103,6.42988 2.08412,11.22516 0.54388,-1.35075 0.9779,-2.73301 1.2764,-4.17184 -0.69231,-1.14041 -1.21838,-2.31228 -1.57871,-3.52587 -0.69639,-1.09736 -1.27395,-2.28719 -1.78181,-3.52745 z m 2.86133,0.33901 c 0.0343,0.0616 0.0704,0.12213 0.10541,0.18344 0.0161,0 0.0382,0.003 0.0501,0 0.003,-0.006 0.0167,-0.0307 0.0254,-0.0465 0.12142,0.29956 0.26403,0.6028 0.43458,0.91569 -0.17243,-0.28866 -0.34396,-0.57755 -0.51004,-0.8692 -0.042,0 -0.0952,-0.003 -0.15967,-0.0103 0.0188,-0.0585 0.0347,-0.12134 0.0543,-0.17312 z m 0.11885,4.8364 c 0.0406,0.2023 0.0758,0.36473 0.11989,0.6041 0.13216,0.19354 0.25892,0.3911 0.38862,0.58652 0.0143,-0.0815 0.032,-0.16158 0.0455,-0.24341 0.0222,-0.0869 0.0432,-0.17476 0.0651,-0.26199 -0.21389,-0.22233 -0.42159,-0.44977 -0.61908,-0.68522 z m 3.32746,5.39604 c 0.0713,0.0968 0.14396,0.19246 0.21651,0.28835 0.003,-0.0241 0.007,-0.0509 0.01,-0.0749 -0.0761,-0.0706 -0.15063,-0.14251 -0.22633,-0.21342 z"
         sodipodi:nodetypes="cccscsccccccssccsccccscccsccccccccccccccccssccccccccccssscsscsccsccssccccccccccsscssccsscccssccsscsccscssccccssccccsccscccsccccsccsssccsccscsscsccccccccsccsccssscsccccccccccccccccccccccccscccccccccccccccccccccsscccccscccccssccccccccccccccccccccccsccscsssccsssccscssssccscssccccccccccccscccssccccccsccscsccccccccccscccscsccccccccccccscsccccsscccsc" /></clipPath><filter
       inkscape:collect="always"
       style="color-interpolation-filters:sRGB"
       id="filter36189"
       x="-0.086514888"
       y="-0.12682324"
       width="1.1730298"
       height="1.2536465"><feGaussianBlur
         inkscape:collect="always"
         stdDeviation="13.314295"
         id="feGaussianBlur36191" /></filter></defs><g
     inkscape:groupmode="layer"
     id="layer2"
     inkscape:label="Layer 2"
     style="display:none;mix-blend-mode:normal;fill:#ffffff;fill-opacity:0.864407;filter:url(#filter36189)"
     transform="translate(1.0583331,2.1166667)"><path
       id="path5686-9"
       clip-path="url(#clipPath5406-6)"
       style="fill:#ffffff;fill-opacity:0.864407;stroke:#000000;stroke-width:0;stroke-dasharray:none;stroke-opacity:0.995763"
       d="m 571.7978,66.532362 -25.13201,0.218834 -31.85034,0.0238 c -0.12879,26.85997 -0.28288,27.896345 0.16914,78.252524 0.17852,5.13334 4.14444,7.55759 6.53442,9.69642 13.86297,12.40619 17.78237,14.92376 44.31513,39.73711 0.13896,-57.04342 0.0748,-57.56674 0.0103,-87.55796 16.78808,0.37352 21.30809,-0.3238 31.95692,-0.0511 11.23476,0.28771 22.6234,-0.29706 33.66833,1.77952 6.07528,1.14223 12.31738,2.62037 17.61026,5.81397 2.31298,1.3956 4.08591,3.56534 5.83545,5.62366 2.29898,2.70473 4.10198,5.7961 6.05772,8.75851 1.98953,3.01359 4.06431,5.98574 5.77202,9.16751 1.64658,3.06786 3.23377,6.20603 4.29036,9.52365 1.12235,3.5241 1.62575,7.22505 2.13227,10.88871 0.53675,3.88233 0.6978,7.80811 0.95594,11.71886 0.47996,7.27138 0.92132,14.54886 1.10202,21.83382 0.0794,3.20132 0.0651,6.40544 -0.008,9.60691 -0.0684,2.99958 -0.14948,6.00244 -0.40313,8.99206 -0.6398,7.54098 -1.19619,15.13648 -2.81892,22.52853 -1.04023,4.73858 -2.58502,9.37481 -4.40818,13.87063 -1.72414,4.25164 -3.76434,8.39394 -6.14497,12.31588 -1.57967,2.6024 -3.29674,5.15779 -5.36808,7.3888 -1.99592,2.14978 -4.15689,4.25358 -6.71678,5.68613 -2.5926,1.45085 -5.56666,2.13876 -8.46628,2.78586 -3.21081,0.71655 -6.51838,0.92203 -9.79694,1.19368 -10.93179,0.90577 -21.90998,1.17522 -32.87578,1.45048 -7.11967,0.17871 -16.33651,-0.49986 -21.36533,0.13035 -3.54202,1.68419 -4.56108,5.5646 -6.41001,8.47146 -1.55915,2.45127 -3.02561,5.02463 -4.68757,7.34735 0.064,-6.74385 0.0995,-13.48748 0.0925,-20.23184 -0.005,-3.44283 -0.0162,-6.88584 0.0129,-10.32856 0.0354,-3.36831 0.0617,-6.73529 0.0486,-10.10378 -0.009,-1.28543 -0.0135,-2.57061 -0.0155,-3.8561 0.0605,-3.48629 0.13137,-9.60573 -0.19069,-13.08137 -0.90874,-3.88829 -2.75862,-5.03901 -5.61361,-7.59178 -26.03351,-21.60925 -27.04733,-22.34013 -38.86584,-32.90394 -1.89272,-1.69533 -2.06627,-1.67701 -6.39899,-5.12491 -0.19821,24.34668 -0.28256,24.32723 0.004,103.60858 0.0869,19.70096 0.003,19.66206 0.14768,23.89615 1.86597,-0.002 7.61424,0.2763 9.48026,0.2723 7.02252,-0.0207 14.0454,-0.0297 21.06796,-0.0217 6.86229,0.007 13.72494,0.0105 20.58738,-5.1e-4 2.90241,-0.003 5.80504,-0.007 8.70747,-0.005 3.44799,0.003 6.89606,-6.8e-4 10.34408,-0.008 1.28674,-0.003 2.5735,-0.005 3.86022,-0.0134 7.78974,-0.0511 15.57986,-0.0929 23.36864,-0.2253 5.3818,-0.0915 10.76574,-0.15266 16.14295,-0.39307 11.69858,-0.52303 23.62471,0.25587 35.05659,-2.28235 5.01933,-1.11444 9.8467,-3.1613 14.3699,-5.60595 4.53577,-2.45144 8.8635,-5.41961 12.59737,-8.97502 3.50064,-3.33334 6.27235,-7.38187 8.98228,-11.38461 3.33832,-4.93089 6.13107,-10.21682 8.91167,-15.4824 2.32037,-4.39404 4.59285,-8.82865 6.47631,-13.42694 2.37307,-5.79364 4.5813,-11.69503 6.0524,-17.78055 1.14833,-4.75033 1.66461,-9.64062 2.13708,-14.50488 0.61731,-6.35546 0.64569,-12.7546 0.90713,-19.13462 0.26813,-6.54325 0.62369,-13.086 0.6784,-19.63452 0.0388,-4.63829 -0.0523,-9.27882 -0.24807,-13.91313 -0.26222,-6.20673 -0.51793,-12.42537 -1.24061,-18.59546 -0.58606,-5.00371 -1.40702,-9.98795 -2.5059,-14.90456 -0.69631,-3.11543 -1.60778,-6.18233 -2.58405,-9.22168 -1.08623,-3.38169 -2.23524,-6.75216 -3.63769,-10.01542 -1.81601,-4.22554 -3.73164,-8.44138 -6.16766,-12.34252 -2.55779,-4.09616 -5.66091,-7.83901 -8.80189,-11.507127 -2.72447,-3.181712 -5.68896,-6.15487 -8.68724,-9.079992 -4.50117,-4.391338 -8.77034,-9.134152 -13.94929,-12.70106 -4.1421,-2.852797 -8.63914,-5.396602 -13.46834,-6.801702 -11.33199,-3.297147 -23.45378,-2.765762 -35.23366,-3.486521 -6.5207,-0.398973 -13.06064,-0.399324 -19.59323,-0.462204 -12.26264,-0.118034 -24.02184,0.17459 -36.78927,0.159488 z"
       sodipodi:nodetypes="ccccsccaaaaaaaaaaaaaaaaaaaacscccccccccccccccaaaaaaaaaaaaaaaaaaaaaaaaaacc"
       transform="translate(2.3540127,-0.41403616)" /><path
       d="m 517.867,317.58878 -0.18055,-39.95479 c -16.78808,-0.37352 -22.04298,-0.18294 -33.05679,-0.56861 -11.23155,-0.39329 -22.6234,0.29706 -33.66832,-1.77952 -6.07528,-1.14223 -12.31738,-2.62037 -17.61026,-5.81397 -2.31298,-1.3956 -4.08591,-3.56534 -5.83545,-5.62366 -2.29898,-2.70473 -4.10198,-5.7961 -6.05772,-8.75851 -1.98953,-3.01359 -4.06431,-5.98574 -5.77202,-9.16751 -1.64658,-3.06786 -3.23377,-6.20603 -4.29036,-9.52365 -1.12235,-3.5241 -1.62575,-7.22505 -2.13227,-10.88871 -0.53675,-3.88233 -0.6978,-7.80811 -0.95594,-11.71886 -0.47996,-7.27138 -0.92132,-14.54886 -1.10202,-21.83382 -0.0794,-3.20132 -0.0651,-6.40544 0.008,-9.60691 0.0684,-2.99958 0.14948,-6.00244 0.40313,-8.99206 0.6398,-7.54098 1.19619,-15.13648 2.81892,-22.52853 1.04023,-4.73858 2.58502,-9.37481 4.40818,-13.87063 1.72414,-4.25164 3.76434,-8.39394 6.14497,-12.31588 1.57967,-2.6024 3.29674,-5.15779 5.36808,-7.3888 1.99592,-2.14978 4.15689,-4.25358 6.71678,-5.68613 2.5926,-1.45085 5.56666,-2.13876 8.46628,-2.78586 3.21081,-0.71655 6.51838,-0.92203 9.79694,-1.19368 10.93179,-0.90577 21.90997,-1.17522 32.87577,-1.45048 7.11967,-0.17871 16.33651,0.49986 21.36533,-0.13035 3.61134,-1.40689 4.77577,-5.17958 6.89528,-7.98618 1.88279,-2.49314 4.28269,-6.029833 5.14742,-7.832619 l 0.0592,-23.864723 c -18.7931,-0.02541 -20.56723,-0.126719 -50.99162,-0.414675 -4.17441,0.008 -12.36236,0.190682 -16.53631,0.252982 -11.70895,0.17477 -19.88119,-0.117222 -31.31307,2.420998 -5.01933,1.11444 -9.8467,3.1613 -14.3699,5.60595 -4.53577,2.45144 -8.8635,5.41961 -12.59737,8.97502 -3.50064,3.33334 -6.27235,7.381874 -8.98228,11.384608 -3.33832,4.930889 -6.13107,10.216809 -8.91167,15.482389 -2.32037,4.39404 -4.59285,8.82865 -6.47631,13.42694 -2.37307,5.79364 -4.5813,11.69503 -6.0524,17.78055 -1.14833,4.75033 -1.66461,9.64062 -2.13708,14.50488 -0.61731,6.35546 -0.64569,12.7546 -0.90713,19.13462 -0.26813,6.54325 -0.62369,13.086 -0.6784,19.63452 -0.0387,4.63829 0.0523,9.27882 0.24807,13.91313 0.26222,6.20673 0.51793,12.42537 1.24061,18.59546 0.58606,5.00371 1.40702,9.98795 2.5059,14.90456 0.69631,3.11543 1.60778,6.18233 2.58405,9.22168 1.08623,3.38169 2.23524,6.75216 3.63769,10.01542 1.81601,4.22554 3.73164,8.44138 6.16766,12.34252 2.55779,4.09616 5.66091,7.83901 8.80189,11.50713 2.72447,3.18171 5.68896,6.15486 8.68724,9.07998 4.50117,4.39134 8.77034,9.13416 13.94929,12.70107 4.1421,2.85279 8.63914,5.3966 13.46834,6.8017 11.33199,3.29714 23.45378,2.76576 35.23365,3.48652 6.5207,0.39897 13.06064,0.39932 19.59323,0.4622 z"
       style="fill:#ffffff;fill-opacity:0.864407;stroke:#000000;stroke-width:0;stroke-dasharray:none;stroke-opacity:0.995763"
       id="path5689-1"
       sodipodi:nodetypes="ccaaaaaaaaaaaaaaaaaaaacacccssssaaaaaaaaaaaaaasssscc" /></g><g
     inkscape:label="Layer 1"
     inkscape:groupmode="layer"
     id="layer1"><path
       id="text7014"
       style="font-style:normal;font-variant:normal;font-weight:normal;font-stretch:normal;font-size:141.111px;line-height:0;font-family:'JetBrainsMonoNL Nerd Font';-inkscape-font-specification:'JetBrainsMonoNL Nerd Font';text-align:start;text-anchor:start;fill:#8e8e8e;fill-opacity:1;stroke:#fbfdfb;stroke-width:0;stroke-dasharray:none;stroke-opacity:1"
       d="m 250.38472,363.98398 c -9.40738,0 -16.83952,2.63424 -22.2958,7.90236 -5.45628,5.26814 -8.18451,12.51175 -8.18451,21.73098 v 46.56666 c 0,9.21925 2.72823,16.46284 8.18451,21.73098 5.45628,5.26813 12.88842,7.90236 22.2958,7.90236 9.21923,0 16.55685,-2.63423 22.01312,-7.90236 5.45629,-5.36221 8.18452,-12.60581 8.18452,-21.73098 h -12.7 c 0,5.83259 -1.55213,10.34847 -4.65657,13.54698 -3.01035,3.10444 -7.29072,4.65656 -12.84107,4.65656 -5.55036,0 -9.92524,-1.55212 -13.12375,-4.65656 -3.10444,-3.19851 -4.65656,-7.71439 -4.65656,-13.54698 v -46.56666 c 0,-5.83258 1.55212,-10.30095 4.65656,-13.40539 3.19851,-3.1985 7.57339,-4.79764 13.12375,-4.79764 5.55035,0 9.83072,1.59914 12.84107,4.79764 3.10444,3.10444 4.65657,7.57281 4.65657,13.40539 h 12.7 c 0,-9.12516 -2.72823,-16.32176 -8.18452,-21.5899 -5.45627,-5.3622 -12.79389,-8.04344 -22.01312,-8.04344 z m 308.18635,1.41129 v 103.01076 h 26.67021 c 6.67924,0 12.41772,-1.26959 17.21549,-3.80958 4.89183,-2.54 8.65465,-6.1148 11.28871,-10.72441 2.72815,-4.7037 4.09226,-10.20715 4.09226,-16.51011 v -41.06364 c 0,-6.30294 -1.36411,-11.75889 -4.09226,-16.36851 -2.63406,-4.60961 -6.39688,-8.18441 -11.28871,-10.72441 -4.79777,-2.53999 -10.53625,-3.8101 -17.21549,-3.8101 z m 254.70539,0 v 103.01076 h 12.7 v -34.57205 h 15.09933 l 22.57744,34.57205 h 14.81666 l -26.38753,-40.63989 24.97625,-36.97087 h -14.534 l -21.73149,32.03215 h -14.81666 v -57.43215 z m -378.03636,5.30097 v 17.27698 l 0.28215,17.63871 h -0.14107 c -0.75259,-4.9859 -3.05728,-8.93724 -6.91431,-11.85354 -3.76296,-2.91628 -8.56085,-4.37441 -14.39344,-4.37441 -7.80812,0 -14.01715,2.58722 -18.62677,7.76129 -4.60961,5.17405 -6.9143,12.22965 -6.9143,21.16666 v 22.71903 c 0,8.84294 2.30469,15.85102 6.9143,21.02507 4.7037,5.17407 10.91272,7.76129 18.62677,7.76129 5.83259,0 10.63048,-1.41112 14.39344,-4.23334 3.76296,-2.91628 5.97364,-6.91463 6.63215,-11.99461 h 0.14108 v 14.81666 h 12.7 v -97.25349 c -4.17033,1.01537 -8.61418,0.88121 -12.7,-0.4563 z m 136.03097,5.98774 h 13.97021 c 6.20887,0 11.05379,1.74066 14.53451,5.22139 3.57481,3.48074 5.36195,8.27813 5.36195,14.39292 v 41.06364 c 0,6.20888 -1.78714,11.05378 -5.36195,14.53452 -3.48072,3.48072 -8.32564,5.22087 -14.53451,5.22087 h -13.97021 z m -68.01548,12.7 c -9.12516,0 -16.50977,2.77524 -22.15421,8.32559 -5.55035,5.45629 -8.32559,13.02943 -8.32559,22.71903 v 18.3441 c 0,9.6896 2.77524,17.30975 8.32559,22.8601 5.64444,5.45629 13.02905,8.18452 22.15421,8.18452 8.18442,0 15.005,-1.88166 20.46128,-5.64462 5.45628,-3.85703 8.60754,-9.03096 9.4542,-15.52205 h -12.7 c -0.65851,3.10444 -2.54018,5.59765 -5.64461,7.47913 -3.01037,1.78741 -6.86719,2.68097 -11.57087,2.68097 -5.45629,0 -9.83066,-1.64614 -13.12323,-4.93871 -3.29259,-3.38666 -4.93924,-7.94955 -4.93924,-13.68806 v -7.33753 h 48.54226 v -13.82913 c 0,-6.02073 -1.26959,-11.24166 -3.80959,-15.66313 -2.53998,-4.42146 -6.11479,-7.85526 -10.72441,-10.30118 -4.51553,-2.44592 -9.831,-3.66903 -15.94579,-3.66903 z m 255.12861,0 c -9.40738,0 -16.93301,2.63424 -22.57743,7.90236 -5.64444,5.26814 -8.46667,12.51175 -8.46667,21.73098 v 21.16666 c 0,9.21925 2.82223,16.46284 8.46667,21.73098 5.64442,5.26813 13.17005,7.90236 22.57743,7.90236 8.93701,0 16.13414,-2.3987 21.59041,-7.19646 5.55036,-4.79777 8.4666,-11.33632 8.74882,-19.61483 h -12.7 c -0.28222,4.89185 -1.97587,8.70218 -5.08031,11.43031 -3.10443,2.72815 -7.29079,4.09226 -12.55892,4.09226 -5.55035,0 -10.01873,-1.59913 -13.40538,-4.79764 -3.29259,-3.19851 -4.93872,-7.71439 -4.93872,-13.54698 v -21.30774 c 0,-5.83257 1.64613,-10.30095 4.93872,-13.40538 3.38665,-3.19851 7.85503,-4.79764 13.40538,-4.79764 5.26813,0 9.45449,1.36359 12.55892,4.09174 3.10444,2.63407 4.79809,6.44439 5.08031,11.43031 h 12.7 c -0.28222,-8.2785 -3.19846,-14.81654 -8.74882,-19.61431 -5.45627,-4.79776 -12.6534,-7.19698 -21.59041,-7.19698 z m -424.46195,0.28216 c -9.40738,0 -16.83899,2.72823 -22.29528,8.18451 -5.45627,5.36221 -8.18451,12.98235 -8.18451,22.8601 v 17.7798 c 0,9.78367 2.72824,17.40382 8.18451,22.8601 5.55036,5.45629 12.98198,8.18451 22.29528,8.18451 9.31331,0 16.69845,-2.72822 22.15472,-8.18451 5.55036,-5.45628 8.32508,-13.07643 8.32508,-22.8601 v -17.7798 c 0,-9.87775 -2.72772,-17.49789 -8.184,-22.8601 -5.45628,-5.45628 -12.88842,-8.18451 -22.2958,-8.18451 z m 338.66667,0 c -9.40738,0 -16.83951,2.72823 -22.2958,8.18451 -5.45627,5.36221 -8.18399,12.98235 -8.18399,22.8601 v 17.7798 c 0,9.78367 2.72772,17.40382 8.18399,22.8601 5.55036,5.45629 12.98249,8.18451 22.2958,8.18451 9.31331,0 16.69793,-2.72822 22.1542,-8.18451 5.55036,-5.45628 8.32559,-13.07643 8.32559,-22.8601 v -17.7798 c 0,-9.87775 -2.72823,-17.49789 -8.18451,-22.8601 -5.45628,-5.45628 -12.8879,-8.18451 -22.29528,-8.18451 z m -169.33333,10.1601 c 5.73849,0 10.15987,1.69365 13.2643,5.08031 3.19852,3.29259 4.79816,7.99596 4.79816,14.11077 v 3.95118 h -36.12493 v -3.95118 c 0,-6.11481 1.55265,-10.81818 4.65708,-14.11077 3.19852,-3.38666 7.66688,-5.08031 13.40539,-5.08031 z m -84.94882,0.56431 c 5.26813,0 9.40749,1.64664 12.41784,4.93923 3.01037,3.29259 4.51549,7.85496 4.51549,13.68754 v 21.16666 c 0,5.83259 -1.50512,10.39547 -4.51549,13.68806 -3.01035,3.29257 -7.14971,4.93871 -12.41784,4.93871 -5.36222,0 -9.54856,-1.41111 -12.55893,-4.23333 -3.01035,-2.82222 -4.51548,-7.38511 -4.51548,-13.68805 v -22.57744 c 0,-6.39701 1.50513,-10.95991 4.51548,-13.68805 3.01037,-2.82222 7.19671,-4.23333 12.55893,-4.23333 z m -84.38452,0.56482 c 5.55036,0 9.87772,1.55214 12.98216,4.65656 3.1985,3.10444 4.79764,7.66682 4.79764,13.68754 v 20.60236 c 0,6.02073 -1.59914,10.5831 -4.79764,13.68754 -3.10444,3.10443 -7.4318,4.65708 -12.98216,4.65708 -5.45627,0 -9.78364,-1.55265 -12.98215,-4.65708 -3.19851,-3.10444 -4.79764,-7.66681 -4.79764,-13.68754 v -20.60236 c 0,-6.02072 1.59913,-10.5831 4.79764,-13.68754 3.19851,-3.10442 7.52588,-4.65656 12.98215,-4.65656 z m 338.66667,0 c 5.55035,0 9.87772,1.55214 12.98215,4.65656 3.19852,3.10444 4.79764,7.66682 4.79764,13.68754 v 20.60236 c 0,6.02073 -1.59912,10.5831 -4.79764,13.68754 -3.10443,3.10443 -7.4318,4.65708 -12.98215,4.65708 -5.45628,0 -9.78365,-1.55265 -12.98215,-4.65708 -3.19852,-3.10444 -4.79764,-7.66681 -4.79764,-13.68754 v -20.60236 c 0,-6.02072 1.59912,-10.5831 4.79764,-13.68754 3.1985,-3.10442 7.52587,-4.65656 12.98215,-4.65656 z" /><path
       id="path5686"
       clip-path="url(#clipPath5406)"
       style="fill:#000000;fill-opacity:1;stroke:#000000;stroke-width:0;stroke-dasharray:none;stroke-opacity:0.995763"
       d="m 571.7978,66.532362 -25.13201,0.218834 -31.85034,0.0238 c -0.12879,26.85997 -0.28288,27.896345 0.16914,78.252524 0.17852,5.13334 4.14444,7.55759 6.53442,9.69642 13.86297,12.40619 17.78237,14.92376 44.31513,39.73711 0.13896,-57.04342 0.0748,-57.56674 0.0103,-87.55796 16.78808,0.37352 21.30809,-0.3238 31.95692,-0.0511 11.23476,0.28771 22.6234,-0.29706 33.66833,1.77952 6.07528,1.14223 12.31738,2.62037 17.61026,5.81397 2.31298,1.3956 4.08591,3.56534 5.83545,5.62366 2.29898,2.70473 4.10198,5.7961 6.05772,8.75851 1.98953,3.01359 4.06431,5.98574 5.77202,9.16751 1.64658,3.06786 3.23377,6.20603 4.29036,9.52365 1.12235,3.5241 1.62575,7.22505 2.13227,10.88871 0.53675,3.88233 0.6978,7.80811 0.95594,11.71886 0.47996,7.27138 0.92132,14.54886 1.10202,21.83382 0.0794,3.20132 0.0651,6.40544 -0.008,9.60691 -0.0684,2.99958 -0.14948,6.00244 -0.40313,8.99206 -0.6398,7.54098 -1.19619,15.13648 -2.81892,22.52853 -1.04023,4.73858 -2.58502,9.37481 -4.40818,13.87063 -1.72414,4.25164 -3.76434,8.39394 -6.14497,12.31588 -1.57967,2.6024 -3.29674,5.15779 -5.36808,7.3888 -1.99592,2.14978 -4.15689,4.25358 -6.71678,5.68613 -2.5926,1.45085 -5.56666,2.13876 -8.46628,2.78586 -3.21081,0.71655 -6.51838,0.92203 -9.79694,1.19368 -10.93179,0.90577 -21.90998,1.17522 -32.87578,1.45048 -7.11967,0.17871 -16.33651,-0.49986 -21.36533,0.13035 -3.54202,1.68419 -4.56108,5.5646 -6.41001,8.47146 -1.55915,2.45127 -3.02561,5.02463 -4.68757,7.34735 0.064,-6.74385 0.0995,-13.48748 0.0925,-20.23184 -0.005,-3.44283 -0.0162,-6.88584 0.0129,-10.32856 0.0354,-3.36831 0.0617,-6.73529 0.0486,-10.10378 -0.009,-1.28543 -0.0135,-2.57061 -0.0155,-3.8561 0.0605,-3.48629 0.13137,-9.60573 -0.19069,-13.08137 -0.90874,-3.88829 -2.75862,-5.03901 -5.61361,-7.59178 -26.03351,-21.60925 -27.04733,-22.34013 -38.86584,-32.90394 -1.89272,-1.69533 -2.06627,-1.67701 -6.39899,-5.12491 -0.19821,24.34668 -0.28256,24.32723 0.004,103.60858 0.0869,19.70096 0.003,19.66206 0.14768,23.89615 1.86597,-0.002 7.61424,0.2763 9.48026,0.2723 7.02252,-0.0207 14.0454,-0.0297 21.06796,-0.0217 6.86229,0.007 13.72494,0.0105 20.58738,-5.1e-4 2.90241,-0.003 5.80504,-0.007 8.70747,-0.005 3.44799,0.003 6.89606,-6.8e-4 10.34408,-0.008 1.28674,-0.003 2.5735,-0.005 3.86022,-0.0134 7.78974,-0.0511 15.57986,-0.0929 23.36864,-0.2253 5.3818,-0.0915 10.76574,-0.15266 16.14295,-0.39307 11.69858,-0.52303 23.62471,0.25587 35.05659,-2.28235 5.01933,-1.11444 9.8467,-3.1613 14.3699,-5.60595 4.53577,-2.45144 8.8635,-5.41961 12.59737,-8.97502 3.50064,-3.33334 6.27235,-7.38187 8.98228,-11.38461 3.33832,-4.93089 6.13107,-10.21682 8.91167,-15.4824 2.32037,-4.39404 4.59285,-8.82865 6.47631,-13.42694 2.37307,-5.79364 4.5813,-11.69503 6.0524,-17.78055 1.14833,-4.75033 1.66461,-9.64062 2.13708,-14.50488 0.61731,-6.35546 0.64569,-12.7546 0.90713,-19.13462 0.26813,-6.54325 0.62369,-13.086 0.6784,-19.63452 0.0388,-4.63829 -0.0523,-9.27882 -0.24807,-13.91313 -0.26222,-6.20673 -0.51793,-12.42537 -1.24061,-18.59546 -0.58606,-5.00371 -1.40702,-9.98795 -2.5059,-14.90456 -0.69631,-3.11543 -1.60778,-6.18233 -2.58405,-9.22168 -1.08623,-3.38169 -2.23524,-6.75216 -3.63769,-10.01542 -1.81601,-4.22554 -3.73164,-8.44138 -6.16766,-12.34252 -2.55779,-4.09616 -5.66091,-7.83901 -8.80189,-11.507127 -2.72447,-3.181712 -5.68896,-6.15487 -8.68724,-9.079992 -4.50117,-4.391338 -8.77034,-9.134152 -13.94929,-12.70106 -4.1421,-2.852797 -8.63914,-5.396602 -13.46834,-6.801702 -11.33199,-3.297147 -23.45378,-2.765762 -35.23366,-3.486521 -6.5207,-0.398973 -13.06064,-0.399324 -19.59323,-0.462204 -12.26264,-0.118034 -24.02184,0.17459 -36.78927,0.159488 z"
       sodipodi:nodetypes="ccccsccaaaaaaaaaaaaaaaaaaaacscccccccccccccccaaaaaaaaaaaaaaaaaaaaaaaaaacc"
       transform="translate(3.3497551,1.9607843)" /><text
       xml:space="preserve"
       style="font-style:normal;font-variant:normal;font-weight:normal;font-stretch:normal;font-size:31.75px;line-height:0;font-family:FreeSans;-inkscape-font-specification:FreeSans;text-align:start;text-anchor:start;white-space:pre;inline-size:919.693;fill:#595959;fill-opacity:1;stroke:#3e3e3e;stroke-width:0;stroke-dasharray:none;stroke-opacity:1"
       x="98.828598"
       y="564.14642"
       id="text15803"
       transform="translate(109.12321,-11.324107)"><tspan
         x="98.828598"
         y="564.14642"
         id="tspan1425"><tspan
           style="font-style:oblique;font-family:'Latin Modern Mono Light';-inkscape-font-specification:'Latin Modern Mono Light, Oblique'"
           id="tspan1423">An unfinished editor for unfinished ideas</tspan></tspan></text><path
       d="m 518.86275,319.9636 -0.18055,-39.95479 c -16.78808,-0.37352 -22.04298,-0.18294 -33.05679,-0.56861 -11.23155,-0.39329 -22.6234,0.29706 -33.66832,-1.77952 -6.07528,-1.14223 -12.31738,-2.62037 -17.61026,-5.81397 -2.31298,-1.3956 -4.08591,-3.56534 -5.83545,-5.62366 -2.29898,-2.70473 -4.10198,-5.7961 -6.05772,-8.75851 -1.98953,-3.01359 -4.06431,-5.98574 -5.77202,-9.16751 -1.64658,-3.06786 -3.23377,-6.20603 -4.29036,-9.52365 -1.12235,-3.5241 -1.62575,-7.22505 -2.13227,-10.88871 -0.53675,-3.88233 -0.6978,-7.80811 -0.95594,-11.71886 -0.47996,-7.27138 -0.92132,-14.54886 -1.10202,-21.83382 -0.0794,-3.20132 -0.0651,-6.40544 0.008,-9.60691 0.0684,-2.99958 0.14948,-6.00244 0.40313,-8.99206 0.6398,-7.54098 1.19619,-15.13648 2.81892,-22.52853 1.04023,-4.73858 2.58502,-9.37481 4.40818,-13.87063 1.72414,-4.25164 3.76434,-8.39394 6.14497,-12.31588 1.57967,-2.6024 3.29674,-5.15779 5.36808,-7.3888 1.99592,-2.14978 4.15689,-4.25358 6.71678,-5.68613 2.5926,-1.45085 5.56666,-2.13876 8.46628,-2.78586 3.21081,-0.71655 6.51838,-0.92203 9.79694,-1.19368 10.93179,-0.90577 21.90997,-1.17522 32.87577,-1.45048 7.11967,-0.17871 16.33651,0.49986 21.36533,-0.13035 3.61134,-1.40689 4.77577,-5.17958 6.89528,-7.98618 1.88279,-2.49314 4.28269,-6.029833 5.14742,-7.832619 l 0.0592,-23.864723 c -18.7931,-0.02541 -20.56723,-0.126719 -50.99162,-0.414675 -4.17441,0.008 -12.36236,0.190682 -16.53631,0.252982 -11.70895,0.17477 -19.88119,-0.117222 -31.31307,2.420998 -5.01933,1.11444 -9.8467,3.1613 -14.3699,5.60595 -4.53577,2.45144 -8.8635,5.41961 -12.59737,8.97502 -3.50064,3.33334 -6.27235,7.381874 -8.98228,11.384608 -3.33832,4.930889 -6.13107,10.216809 -8.91167,15.482389 -2.32037,4.39404 -4.59285,8.82865 -6.47631,13.42694 -2.37307,5.79364 -4.5813,11.69503 -6.0524,17.78055 -1.14833,4.75033 -1.66461,9.64062 -2.13708,14.50488 -0.61731,6.35546 -0.64569,12.7546 -0.90713,19.13462 -0.26813,6.54325 -0.62369,13.086 -0.6784,19.63452 -0.0387,4.63829 0.0523,9.27882 0.24807,13.91313 0.26222,6.20673 0.51793,12.42537 1.24061,18.59546 0.58606,5.00371 1.40702,9.98795 2.5059,14.90456 0.69631,3.11543 1.60778,6.18233 2.58405,9.22168 1.08623,3.38169 2.23524,6.75216 3.63769,10.01542 1.81601,4.22554 3.73164,8.44138 6.16766,12.34252 2.55779,4.09616 5.66091,7.83901 8.80189,11.50713 2.72447,3.18171 5.68896,6.15486 8.68724,9.07998 4.50117,4.39134 8.77034,9.13416 13.94929,12.70107 4.1421,2.85279 8.63914,5.3966 13.46834,6.8017 11.33199,3.29714 23.45378,2.76576 35.23365,3.48652 6.5207,0.39897 13.06064,0.39932 19.59323,0.4622 z"
       style="fill:#060606;fill-opacity:1;stroke:#000000;stroke-width:0;stroke-dasharray:none;stroke-opacity:0.995763"
       id="path5689"
       sodipodi:nodetypes="ccaaaaaaaaaaaaaaaaaaaacacccssssaaaaaaaaaaaaaasssscc" /></g></svg>
